<svg xmlns="http://www.w3.org/2000/svg" viewBox="0 0 64 64">
  <!-- Static connecting orb generated from thinking-orbs' MIT-licensed `connecting` / `web` painter (© 2026 Jakub Antalik). -->
  <rect width="64" height="64" rx="16" fill="#000"/>
  <g opacity=".98">
  <line x1="40.74" y1="12.36" x2="25.93" y2="13.01" stroke="rgba(148,148,148,0.138)" stroke-width="0.60" stroke-linecap="round"/>
  <line x1="40.74" y1="12.36" x2="47.85" y2="16.06" stroke="rgba(148,148,148,0.398)" stroke-width="0.60" stroke-linecap="round"/>
  <line x1="40.74" y1="12.36" x2="32.87" y2="14.64" stroke="rgba(148,148,148,0.362)" stroke-width="0.60" stroke-linecap="round"/>
  <line x1="40.74" y1="12.36" x2="51.31" y2="16.12" stroke="rgba(148,148,148,0.163)" stroke-width="0.60" stroke-linecap="round"/>
  <line x1="40.74" y1="12.36" x2="42.07" y2="26.02" stroke="rgba(148,148,148,0.088)" stroke-width="0.60" stroke-linecap="round"/>
  <line x1="25.93" y1="13.01" x2="20.37" y2="9.26" stroke="rgba(148,148,148,0.095)" stroke-width="0.60" stroke-linecap="round"/>
  <line x1="25.93" y1="13.01" x2="32.87" y2="14.64" stroke="rgba(148,148,148,0.446)" stroke-width="0.60" stroke-linecap="round"/>
  <line x1="36.87" y1="8.69" x2="46.48" y2="11.58" stroke="rgba(148,148,148,0.205)" stroke-width="0.60" stroke-linecap="round"/>
  <line x1="36.87" y1="8.69" x2="26.43" y2="10.23" stroke="rgba(148,148,148,0.187)" stroke-width="0.60" stroke-linecap="round"/>
  <line x1="36.87" y1="8.69" x2="35.36" y2="15.73" stroke="rgba(148,148,148,0.138)" stroke-width="0.60" stroke-linecap="round"/>
  <line x1="36.87" y1="8.69" x2="32.41" y2="17.89" stroke="rgba(148,148,148,0.060)" stroke-width="0.60" stroke-linecap="round"/>
  <line x1="36.87" y1="8.69" x2="47.36" y2="18.46" stroke="rgba(148,148,148,0.070)" stroke-width="0.60" stroke-linecap="round"/>
  <line x1="47.85" y1="16.06" x2="46.48" y2="11.58" stroke="rgba(148,148,148,0.007)" stroke-width="0.60" stroke-linecap="round"/>
  <line x1="47.85" y1="16.06" x2="32.87" y2="14.64" stroke="rgba(148,148,148,0.081)" stroke-width="0.60" stroke-linecap="round"/>
  <line x1="47.85" y1="16.06" x2="51.31" y2="16.12" stroke="rgba(148,148,148,0.395)" stroke-width="0.60" stroke-linecap="round"/>
  <line x1="47.85" y1="16.06" x2="42.07" y2="26.02" stroke="rgba(148,148,148,0.118)" stroke-width="0.60" stroke-linecap="round"/>
  <line x1="47.85" y1="16.06" x2="54.11" y2="27.83" stroke="rgba(148,148,148,0.195)" stroke-width="0.60" stroke-linecap="round"/>
  <line x1="20.37" y1="9.26" x2="26.43" y2="10.23" stroke="rgba(148,148,148,0.089)" stroke-width="0.60" stroke-linecap="round"/>
  <line x1="20.37" y1="9.26" x2="9.20" y2="21.33" stroke="rgba(148,148,148,0.057)" stroke-width="0.60" stroke-linecap="round"/>
  <line x1="46.48" y1="11.58" x2="51.31" y2="16.12" stroke="rgba(148,148,148,0.178)" stroke-width="0.60" stroke-linecap="round"/>
  <line x1="46.48" y1="11.58" x2="55.19" y2="25.44" stroke="rgba(148,148,148,0.047)" stroke-width="0.60" stroke-linecap="round"/>
  <line x1="46.48" y1="11.58" x2="47.36" y2="18.46" stroke="rgba(148,148,148,0.157)" stroke-width="0.60" stroke-linecap="round"/>
  <line x1="32.87" y1="14.64" x2="42.07" y2="26.02" stroke="rgba(148,148,148,0.142)" stroke-width="0.60" stroke-linecap="round"/>
  <line x1="26.43" y1="10.23" x2="35.36" y2="15.73" stroke="rgba(148,148,148,0.125)" stroke-width="0.60" stroke-linecap="round"/>
  <line x1="26.43" y1="10.23" x2="14.84" y2="19.00" stroke="rgba(148,148,148,0.090)" stroke-width="0.60" stroke-linecap="round"/>
  <line x1="26.43" y1="10.23" x2="32.41" y2="17.89" stroke="rgba(148,148,148,0.110)" stroke-width="0.60" stroke-linecap="round"/>
  <line x1="51.31" y1="16.12" x2="55.19" y2="25.44" stroke="rgba(148,148,148,0.032)" stroke-width="0.60" stroke-linecap="round"/>
  <line x1="51.31" y1="16.12" x2="54.11" y2="27.83" stroke="rgba(148,148,148,0.169)" stroke-width="0.60" stroke-linecap="round"/>
  <line x1="12.26" y1="26.56" x2="24.93" y2="33.88" stroke="rgba(148,148,148,0.050)" stroke-width="0.60" stroke-linecap="round"/>
  <line x1="12.26" y1="26.56" x2="9.20" y2="21.33" stroke="rgba(148,148,148,0.227)" stroke-width="0.60" stroke-linecap="round"/>
  <line x1="12.26" y1="26.56" x2="11.51" y2="36.69" stroke="rgba(148,148,148,0.329)" stroke-width="0.60" stroke-linecap="round"/>
  <line x1="35.36" y1="15.73" x2="32.41" y2="17.89" stroke="rgba(148,148,148,0.276)" stroke-width="0.60" stroke-linecap="round"/>
  <line x1="35.36" y1="15.73" x2="47.36" y2="18.46" stroke="rgba(148,148,148,0.115)" stroke-width="0.60" stroke-linecap="round"/>
  <line x1="35.36" y1="15.73" x2="38.93" y2="24.37" stroke="rgba(148,148,148,0.155)" stroke-width="0.60" stroke-linecap="round"/>
  <line x1="42.07" y1="26.02" x2="54.11" y2="27.83" stroke="rgba(148,148,148,0.096)" stroke-width="0.60" stroke-linecap="round"/>
  <line x1="42.07" y1="26.02" x2="31.72" y2="32.18" stroke="rgba(148,148,148,0.274)" stroke-width="0.60" stroke-linecap="round"/>
  <line x1="14.84" y1="19.00" x2="14.65" y2="24.39" stroke="rgba(148,148,148,0.267)" stroke-width="0.60" stroke-linecap="round"/>
  <line x1="14.84" y1="19.00" x2="8.29" y2="32.76" stroke="rgba(148,148,148,0.064)" stroke-width="0.60" stroke-linecap="round"/>
  <line x1="55.19" y1="25.44" x2="47.36" y2="18.46" stroke="rgba(148,148,148,0.145)" stroke-width="0.60" stroke-linecap="round"/>
  <line x1="55.19" y1="25.44" x2="57.54" y2="33.73" stroke="rgba(148,148,148,0.170)" stroke-width="0.60" stroke-linecap="round"/>
  <line x1="55.19" y1="25.44" x2="54.66" y2="29.87" stroke="rgba(148,148,148,0.329)" stroke-width="0.60" stroke-linecap="round"/>
  <line x1="55.19" y1="25.44" x2="53.01" y2="43.69" stroke="rgba(148,148,148,0.001)" stroke-width="0.60" stroke-linecap="round"/>
  <line x1="24.93" y1="33.88" x2="31.72" y2="32.18" stroke="rgba(148,148,148,0.520)" stroke-width="0.60" stroke-linecap="round"/>
  <line x1="24.93" y1="33.88" x2="11.51" y2="36.69" stroke="rgba(148,148,148,0.065)" stroke-width="0.60" stroke-linecap="round"/>
  <line x1="24.93" y1="33.88" x2="21.90" y2="43.75" stroke="rgba(148,148,148,0.323)" stroke-width="0.60" stroke-linecap="round"/>
  <line x1="32.41" y1="17.89" x2="47.36" y2="18.46" stroke="rgba(148,148,148,0.047)" stroke-width="0.60" stroke-linecap="round"/>
  <line x1="32.41" y1="17.89" x2="38.93" y2="24.37" stroke="rgba(148,148,148,0.163)" stroke-width="0.60" stroke-linecap="round"/>
  <line x1="54.11" y1="27.83" x2="57.54" y2="33.73" stroke="rgba(148,148,148,0.168)" stroke-width="0.60" stroke-linecap="round"/>
  <line x1="54.11" y1="27.83" x2="50.99" y2="40.50" stroke="rgba(148,148,148,0.200)" stroke-width="0.60" stroke-linecap="round"/>
  <line x1="9.20" y1="21.33" x2="8.29" y2="32.76" stroke="rgba(148,148,148,0.004)" stroke-width="0.60" stroke-linecap="round"/>
  <line x1="47.36" y1="18.46" x2="38.93" y2="24.37" stroke="rgba(148,148,148,0.106)" stroke-width="0.60" stroke-linecap="round"/>
  <line x1="47.36" y1="18.46" x2="54.66" y2="29.87" stroke="rgba(148,148,148,0.103)" stroke-width="0.60" stroke-linecap="round"/>
  <line x1="31.72" y1="32.18" x2="21.90" y2="43.75" stroke="rgba(148,148,148,0.106)" stroke-width="0.60" stroke-linecap="round"/>
  <line x1="14.65" y1="24.39" x2="8.29" y2="32.76" stroke="rgba(148,148,148,0.128)" stroke-width="0.60" stroke-linecap="round"/>
  <line x1="14.65" y1="24.39" x2="24.00" y2="34.68" stroke="rgba(148,148,148,0.055)" stroke-width="0.60" stroke-linecap="round"/>
  <line x1="14.65" y1="24.39" x2="12.74" y2="41.66" stroke="rgba(148,148,148,0.016)" stroke-width="0.60" stroke-linecap="round"/>
  <line x1="57.54" y1="33.73" x2="50.99" y2="40.50" stroke="rgba(148,148,148,0.042)" stroke-width="0.60" stroke-linecap="round"/>
  <line x1="57.54" y1="33.73" x2="54.66" y2="29.87" stroke="rgba(148,148,148,0.150)" stroke-width="0.60" stroke-linecap="round"/>
  <line x1="57.54" y1="33.73" x2="52.95" y2="45.82" stroke="rgba(148,148,148,0.154)" stroke-width="0.60" stroke-linecap="round"/>
  <line x1="57.54" y1="33.73" x2="53.01" y2="43.69" stroke="rgba(148,148,148,0.118)" stroke-width="0.60" stroke-linecap="round"/>
  <line x1="11.51" y1="36.69" x2="21.90" y2="43.75" stroke="rgba(148,148,148,0.191)" stroke-width="0.60" stroke-linecap="round"/>
  <line x1="38.93" y1="24.37" x2="24.00" y2="34.68" stroke="rgba(148,148,148,0.005)" stroke-width="0.60" stroke-linecap="round"/>
  <line x1="38.93" y1="24.37" x2="39.51" y2="37.34" stroke="rgba(148,148,148,0.095)" stroke-width="0.60" stroke-linecap="round"/>
  <line x1="50.99" y1="40.50" x2="52.95" y2="45.82" stroke="rgba(148,148,148,0.261)" stroke-width="0.60" stroke-linecap="round"/>
  <line x1="8.29" y1="32.76" x2="12.56" y2="48.49" stroke="rgba(148,148,148,0.016)" stroke-width="0.60" stroke-linecap="round"/>
  <line x1="8.29" y1="32.76" x2="12.74" y2="41.66" stroke="rgba(148,148,148,0.186)" stroke-width="0.60" stroke-linecap="round"/>
  <line x1="54.66" y1="29.87" x2="53.01" y2="43.69" stroke="rgba(148,148,148,0.106)" stroke-width="0.60" stroke-linecap="round"/>
  <line x1="21.90" y1="43.75" x2="34.88" y2="51.25" stroke="rgba(148,148,148,0.125)" stroke-width="0.60" stroke-linecap="round"/>
  <line x1="24.00" y1="34.68" x2="39.51" y2="37.34" stroke="rgba(148,148,148,0.046)" stroke-width="0.60" stroke-linecap="round"/>
  <line x1="24.00" y1="34.68" x2="12.74" y2="41.66" stroke="rgba(148,148,148,0.033)" stroke-width="0.60" stroke-linecap="round"/>
  <line x1="24.00" y1="34.68" x2="34.14" y2="45.10" stroke="rgba(148,148,148,0.066)" stroke-width="0.60" stroke-linecap="round"/>
  <line x1="52.95" y1="45.82" x2="53.01" y2="43.69" stroke="rgba(148,148,148,0.134)" stroke-width="0.60" stroke-linecap="round"/>
  <line x1="52.95" y1="45.82" x2="44.45" y2="54.30" stroke="rgba(148,148,148,0.149)" stroke-width="0.60" stroke-linecap="round"/>
  <line x1="12.56" y1="48.49" x2="12.74" y2="41.66" stroke="rgba(148,148,148,0.134)" stroke-width="0.60" stroke-linecap="round"/>
  <line x1="12.56" y1="48.49" x2="22.85" y2="55.87" stroke="rgba(148,148,148,0.161)" stroke-width="0.60" stroke-linecap="round"/>
  <line x1="12.56" y1="48.49" x2="21.02" y2="51.78" stroke="rgba(148,148,148,0.140)" stroke-width="0.60" stroke-linecap="round"/>
  <line x1="39.51" y1="37.34" x2="34.14" y2="45.10" stroke="rgba(148,148,148,0.157)" stroke-width="0.60" stroke-linecap="round"/>
  <line x1="39.51" y1="37.34" x2="39.03" y2="52.27" stroke="rgba(148,148,148,0.010)" stroke-width="0.60" stroke-linecap="round"/>
  <line x1="12.74" y1="41.66" x2="21.02" y2="51.78" stroke="rgba(148,148,148,0.124)" stroke-width="0.60" stroke-linecap="round"/>
  <line x1="53.01" y1="43.69" x2="44.45" y2="54.30" stroke="rgba(148,148,148,0.087)" stroke-width="0.60" stroke-linecap="round"/>
  <line x1="53.01" y1="43.69" x2="39.03" y2="52.27" stroke="rgba(148,148,148,0.030)" stroke-width="0.60" stroke-linecap="round"/>
  <line x1="22.85" y1="55.87" x2="21.02" y2="51.78" stroke="rgba(148,148,148,0.120)" stroke-width="0.60" stroke-linecap="round"/>
  <line x1="22.85" y1="55.87" x2="32.65" y2="57.31" stroke="rgba(148,148,148,0.220)" stroke-width="0.60" stroke-linecap="round"/>
  <line x1="34.14" y1="45.10" x2="21.02" y2="51.78" stroke="rgba(148,148,148,0.014)" stroke-width="0.60" stroke-linecap="round"/>
  <line x1="34.14" y1="45.10" x2="39.03" y2="52.27" stroke="rgba(148,148,148,0.138)" stroke-width="0.60" stroke-linecap="round"/>
  <line x1="44.45" y1="54.30" x2="39.03" y2="52.27" stroke="rgba(148,148,148,0.131)" stroke-width="0.60" stroke-linecap="round"/>
  <line x1="44.45" y1="54.30" x2="32.65" y2="57.31" stroke="rgba(148,148,148,0.180)" stroke-width="0.60" stroke-linecap="round"/>
  <line x1="21.02" y1="51.78" x2="39.03" y2="52.27" stroke="rgba(148,148,148,0.007)" stroke-width="0.60" stroke-linecap="round"/>
  <line x1="21.02" y1="51.78" x2="32.65" y2="57.31" stroke="rgba(148,148,148,0.085)" stroke-width="0.60" stroke-linecap="round"/>
  <line x1="39.03" y1="52.27" x2="32.65" y2="57.31" stroke="rgba(148,148,148,0.141)" stroke-width="0.60" stroke-linecap="round"/>
  <circle cx="24.00" cy="34.68" r="0.66" fill="rgba(118,118,118,1.000)"/>
  <circle cx="39.51" cy="37.34" r="0.59" fill="rgba(119,119,119,1.000)"/>
  <circle cx="38.93" cy="24.37" r="0.57" fill="rgba(120,120,120,1.000)"/>
  <circle cx="26.43" cy="41.85" r="0.82" fill="rgba(242,242,242,0.526)"/>
  <circle cx="34.14" cy="45.10" r="0.49" fill="rgba(123,123,123,1.000)"/>
  <circle cx="32.41" cy="17.89" r="0.51" fill="rgba(124,124,124,1.000)"/>
  <circle cx="35.36" cy="15.73" r="0.67" fill="rgba(128,128,128,1.000)"/>
  <circle cx="14.65" cy="24.39" r="0.48" fill="rgba(134,134,134,1.000)"/>
  <circle cx="47.36" cy="18.46" r="0.54" fill="rgba(138,138,138,1.000)"/>
  <circle cx="39.03" cy="52.27" r="0.57" fill="rgba(141,141,141,1.000)"/>
  <circle cx="14.84" cy="19.00" r="0.85" fill="rgba(141,141,141,1.000)"/>
  <circle cx="12.74" cy="41.66" r="0.84" fill="rgba(141,141,141,1.000)"/>
  <circle cx="26.43" cy="10.23" r="0.84" fill="rgba(145,145,145,1.000)"/>
  <circle cx="21.02" cy="51.78" r="0.75" fill="rgba(145,145,145,1.000)"/>
  <circle cx="54.66" cy="29.87" r="0.88" fill="rgba(146,146,146,1.000)"/>
  <circle cx="26.07" cy="54.30" r="0.98" fill="rgba(242,242,242,0.642)"/>
  <circle cx="54.14" cy="24.21" r="0.99" fill="rgba(242,242,242,0.650)"/>
  <circle cx="35.99" cy="8.72" r="1.00" fill="rgba(242,242,242,0.653)"/>
  <circle cx="8.29" cy="32.76" r="0.61" fill="rgba(151,151,151,1.000)"/>
  <circle cx="36.87" cy="8.69" r="0.73" fill="rgba(151,151,151,1.000)"/>
  <circle cx="53.01" cy="43.69" r="0.56" fill="rgba(152,152,152,1.000)"/>
  <circle cx="55.19" cy="25.44" r="0.57" fill="rgba(153,153,153,1.000)"/>
  <circle cx="46.48" cy="11.58" r="0.99" fill="rgba(160,160,160,1.000)"/>
  <circle cx="57.25" cy="31.93" r="1.07" fill="rgba(242,242,242,0.709)"/>
  <circle cx="32.65" cy="57.31" r="1.00" fill="rgba(164,164,164,1.000)"/>
  <circle cx="12.56" cy="48.49" r="0.87" fill="rgba(167,167,167,1.000)"/>
  <circle cx="44.45" cy="54.30" r="0.89" fill="rgba(168,168,168,1.000)"/>
  <circle cx="57.54" cy="33.73" r="1.05" fill="rgba(173,173,173,1.000)"/>
  <circle cx="22.85" cy="55.87" r="1.08" fill="rgba(175,175,175,1.000)"/>
  <circle cx="20.37" cy="9.26" r="0.71" fill="rgba(176,176,176,1.000)"/>
  <circle cx="9.20" cy="21.33" r="1.01" fill="rgba(183,183,183,1.000)"/>
  <circle cx="52.95" cy="45.82" r="0.80" fill="rgba(183,183,183,1.000)"/>
  <circle cx="51.31" cy="16.12" r="0.84" fill="rgba(184,184,184,1.000)"/>
  <circle cx="35.78" cy="9.58" r="1.28" fill="rgba(242,242,242,0.865)"/>
  <circle cx="54.11" cy="27.83" r="1.04" fill="rgba(200,200,200,1.000)"/>
  <circle cx="47.85" cy="16.06" r="1.15" fill="rgba(200,200,200,1.000)"/>
  <circle cx="40.74" cy="12.36" r="1.24" fill="rgba(203,203,203,1.000)"/>
  <circle cx="11.51" cy="36.69" r="0.92" fill="rgba(205,205,205,1.000)"/>
  <circle cx="50.99" cy="40.50" r="1.15" fill="rgba(206,206,206,1.000)"/>
  <circle cx="12.26" cy="26.56" r="1.07" fill="rgba(207,207,207,1.000)"/>
  <circle cx="25.93" cy="13.01" r="0.97" fill="rgba(208,208,208,1.000)"/>
  <circle cx="32.10" cy="12.42" r="1.35" fill="rgba(242,242,242,0.911)"/>
  <circle cx="34.88" cy="51.25" r="0.90" fill="rgba(209,209,209,1.000)"/>
  <circle cx="32.87" cy="14.64" r="0.84" fill="rgba(214,214,214,1.000)"/>
  <circle cx="21.90" cy="43.75" r="0.85" fill="rgba(218,218,218,1.000)"/>
  <circle cx="42.07" cy="26.02" r="0.94" fill="rgba(223,223,223,1.000)"/>
  <circle cx="24.93" cy="33.88" r="1.43" fill="rgba(227,227,227,1.000)"/>
  <circle cx="31.72" cy="32.18" r="1.49" fill="rgba(229,229,229,1.000)"/>
  </g>
</svg>
